<?xml version="1.0"?><svg width="400" height="215" xmlns="http://www.w3.org/2000/svg">
 <metadata id="metadata2433">image/svg+xmlNeuron Axon DendritesMohamed IbrahimPublic DomainClker.comNeuron Axon Dendrites Nervous System Cell</metadata>

 <g>
  <title>Layer 1</title>
  <path fill="#afa3cf" stroke="#000000" id="path2467" d="m61.474651,145.669647c-0.91951,-0.570099 -0.905212,-1.015503 0.112507,-3.504639c1.031212,-2.522125 0.858871,-3.259018 -0.825169,-3.528305c-0.58036,-0.092789 -1.055199,-0.229507 -1.055199,-0.303787c0,-0.07428 0.953331,-1.762009 2.118507,-3.750519c3.26672,-5.575073 5.198215,-10.99231 5.296848,-14.85614l0.04892,-1.915825l-1.207779,-1.141685c-1.453331,-1.373787 -2.288807,-1.620125 -6.256496,-1.844666c-6.4669,-0.365982 -10.088821,1.240898 -13.161369,5.839096c-2.321701,3.474541 -3.973682,7.382401 -4.923672,11.647308c-0.28738,1.290176 -0.70269,2.694183 -0.922901,3.120041c-0.49448,0.956207 -1.400558,1.363251 -1.923237,0.863998c-0.483932,-0.46225 -0.192341,-1.79039 1.713528,-7.804703c2.451679,-7.736679 3.015919,-10.907249 1.941101,-10.907249c-0.94342,0 -2.89238,2.427567 -7.484711,9.322708c-2.503609,3.759041 -4.738291,6.98922 -4.965969,7.178169c-0.731831,0.607376 -1.047991,-0.099915 -1.03091,-2.306335c0.01366,-1.763794 0.15028,-2.327255 1.092119,-4.504082c1.28739,-2.975487 1.51936,-3.965179 1.10907,-4.731827c-0.27677,-0.517113 -0.448229,-0.556923 -1.78529,-0.414337l-1.47912,0.157738l0.91666,-0.485237c2.0865,-1.104492 15.40802,-6.303558 23.571392,-9.199348c6.725319,-2.385681 8.738548,-3.570274 10.148098,-5.97123c1.681072,-2.863464 0.574631,-6.382675 -3.19009,-10.146645c-2.966301,-2.965698 -4.114628,-3.58696 -6.900391,-3.73317c-2.68013,-0.140671 -4.549809,0.232391 -6.998089,1.396362c-3.54155,1.683739 -6.42244,4.224449 -11.42979,10.080116c-3.654169,4.273232 -5.287069,5.827415 -5.4165,5.155365c-0.113119,-0.58744 0.63628,-1.848579 2.408772,-4.053543c2.73381,-3.400818 6.649651,-9.994545 6.285458,-10.583817c-0.297428,-0.481239 -3.6432,0.006447 -8.582909,1.251099c-2.580709,0.650253 -4.7827,1.088753 -4.89332,0.974449c-0.33007,-0.341057 -2.30846,-6.290169 -3.00301,-9.030151c-0.35519,-1.401245 -0.774879,-3.760887 -0.932621,-5.243637c-0.496948,-4.671288 0.175871,-16.025063 1.222261,-20.625721c0.40239,-1.769161 0.429359,-1.809071 1.035639,-1.532829c0.342371,0.155998 0.708561,0.473907 0.813751,0.706478c0.1052,0.232582 0.276779,4.017502 0.381289,8.410942c0.205101,8.622139 0.476501,10.661171 1.934662,14.535141c0.940979,2.499985 1.723228,3.762215 3.14197,5.069977c1.964449,1.81076 3.13921,2.19635 7.11167,2.334221c4.793732,0.166382 10.91465,-0.837807 12.054482,-1.977638c0.398418,-0.398422 0.35326,-0.49736 -0.619213,-1.356461c-0.576927,-0.509682 -2.453339,-1.672768 -4.169777,-2.584641c-1.716454,-0.911858 -3.411831,-1.881561 -3.767521,-2.154877l-0.646709,-0.496964l0.966537,-0.005814c1.155083,-0.006966 3.811642,0.920967 7.252892,2.533417c6.07016,2.844246 7.344238,2.847618 7.762268,0.020523c0.17028,-1.151596 0.22084,-1.217606 0.725693,-0.947418c0.298458,0.159744 1.434608,0.999832 2.524757,1.866882c2.4352,1.936829 3.462872,2.415428 4.279743,1.993156c1.548759,-0.800613 2.914497,-3.314674 3.351517,-6.169449c0.672729,-4.39463 -1.072586,-11.672546 -4.368927,-18.218208c-2.126663,-4.222969 -6.236382,-10.203468 -9.05896,-13.182659c-2.074173,-2.189259 -3.695213,-3.130592 -5.830952,-3.385979c-4.20245,-0.502522 -8.600048,-2.640511 -11.93243,-5.801231c-1.972679,-1.871052 -4.03816,-3.06078 -7.03129,-4.050072c-3.13237,-1.035309 -5.366409,-2.136158 -5.915379,-2.91489c-0.39171,-0.55566 -0.386761,-0.600258 0.074799,-0.673847c0.27186,-0.04335 1.879131,0.280758 3.57172,0.72023c3.33346,0.86552 4.16745,0.94762 5.290171,0.52076c0.89068,-0.338642 1.12624,-0.678181 1.13147,-1.630951c0.006729,-1.227139 -0.85145,-2.52874 -5.155451,-7.819269c-5.166109,-6.35025 -7.79822,-9.87886 -7.549358,-10.12067c0.362139,-0.35188 7.029169,7.24366 10.657419,12.14168c1.07465,1.45075 2.75721,4.0436 3.73901,5.76189c2.267971,3.96928 3.917358,6.208031 6.029259,8.18362c2.39109,2.23674 3.88245,2.78064 7.650803,2.79023c3.283779,0.008358 4.182419,-0.352932 4.585617,-1.843613c0.535343,-1.979248 -0.829109,-4.391319 -8.643848,-15.280668c-6.374779,-8.882879 -9.279411,-13.20998 -10.290401,-15.32989c-1.369179,-2.87095 -0.374529,-2.13334 2.626122,1.94752c1.113041,1.513741 2.538509,3.51543 3.167702,4.4482l1.143978,1.69595l0.630508,-1.43405c1.063091,-2.4179 1.355553,-4.46486 1.360462,-9.522161c0.004028,-4.15635 0.061169,-4.775249 0.507679,-5.49999c0.433319,-0.70331 1.004642,-2.03405 1.68708,-3.92965c0.165352,-0.45927 0.211121,-0.46387 0.65134,-0.06548c0.260418,0.23568 0.788319,0.42851 1.173111,0.42851c0.888039,0 0.893349,0.31437 0.061069,3.6192c-1.568489,6.22822 -2.22818,12.998449 -1.783779,18.3062c0.159397,1.903629 0.446377,3.789339 0.63776,4.19047c0.36414,0.763241 1.275459,1.04484 2.437527,0.75317c1.63895,-0.41135 4.381001,-4.66419 5.230583,-8.112459c0.28363,-1.15123 0.5592,-4.085951 0.762379,-8.11904c0.311481,-6.18291 0.325409,-6.28298 0.660629,-4.74469c0.188332,0.86428 0.583069,2.13707 0.877182,2.82841c0.665958,1.56543 0.56691,3.27773 -0.585243,10.11644c-1.819607,10.800529 -1.514187,15.56222 1.458862,22.744349c1.731647,4.183231 3.25843,5.905842 4.536728,5.118671c1.344662,-0.828041 1.941582,-6.06572 1.69738,-14.8936c-0.209457,-7.57201 -0.242378,-7.45002 2.010323,-7.45002c1.502392,0 1.617527,-0.048429 2.708073,-1.138969c0.626427,-0.626431 2.005249,-2.46497 3.064026,-4.085649c1.89817,-2.905521 1.927963,-2.935511 2.132393,-2.14657c0.237328,0.91585 1.085037,1.609289 1.967308,1.609289c1.486382,0 1.038116,0.95875 -2.689262,5.75172c-3.398628,4.370239 -4.658859,6.56719 -4.787529,8.346041c-0.091759,1.268578 -0.024948,1.561581 0.45517,1.99609c1.400269,1.26722 3.775711,0.134148 6.588821,-3.14278c1.044853,-1.21714 2.006523,-2.21299 2.137009,-2.21299c0.130508,0 0.021194,0.279579 -0.242897,0.6213c-8.860321,11.464241 -9.912636,13.685379 -9.880455,20.854851c0.014961,3.332737 0.102341,4.078259 0.713753,6.090229c0.861298,2.834301 2.34951,5.88401 4.123543,8.450253c2.88707,4.1763 9.417076,9.493958 13.028015,10.609268c2.062462,0.637016 2.762192,0.640053 4.132271,0.01783c3.284698,-1.49173 3.844124,-6.79512 1.504768,-14.265553c-0.366554,-1.170528 -1.614525,-4.190727 -2.773277,-6.711559c-2.532471,-5.509331 -3.43161,-7.90366 -4.274483,-11.38266c-0.676186,-2.790989 -0.800056,-4.656078 -0.382248,-5.75502c0.396133,-1.04187 1.021019,-0.81971 1.609558,0.572231c0.882614,2.08744 1.118881,2.47797 1.748901,2.890781c0.554062,0.363029 0.667259,0.352127 1.307571,-0.125931c1.167007,-0.871311 1.422211,-2.282871 1.269234,-7.02079c-0.074425,-2.30476 -0.377792,-5.889891 -0.674187,-7.96697c-0.296387,-2.07708 -0.478798,-3.83659 -0.405357,-3.91003c0.185867,-0.185869 1.851418,0.636379 2.883278,1.42342c0.472672,0.360519 0.929283,0.933929 1.014694,1.27424c0.085411,0.340309 -0.13884,1.75082 -0.498344,3.13447c-0.817245,3.14538 -0.817017,3.29488 0.004974,3.29488c0.461975,0 0.813545,-0.25412 1.177589,-0.851191c0.285431,-0.468161 0.519417,-0.99379 0.519958,-1.168079c0.000534,-0.17428 0.586517,-0.86458 1.302177,-1.534c1.509262,-1.411739 2.255104,-3.10722 2.52478,-5.73942l0.176643,-1.7241l0.499962,0.82213c0.395638,0.65056 0.635216,0.79627 1.148056,0.69824c0.560745,-0.107201 0.624802,-0.0492 0.47525,0.430309c-0.09507,0.304821 -1.909729,4.031 -4.032585,8.28039c-4.177994,8.363249 -5.827171,12.012049 -6.963371,15.406519c-0.675262,2.017403 -0.706825,2.289982 -0.422195,3.646961c0.169205,0.806629 0.675621,2.073799 1.125404,2.815922c0.734047,1.211189 4.997559,6.181698 5.451271,6.355247c0.171104,0.065453 4.356285,-12.52562 5.507721,-16.569908c1.806808,-6.346161 3.323288,-14.759201 3.70594,-20.559481c0.505257,-7.658731 0.420959,-7.207931 1.603325,-8.57407c1.209511,-1.39747 1.683449,-2.408171 2.81868,-6.01094c0.885872,-2.81141 1.528435,-4.3621 1.553185,-3.74829c0.031944,0.79251 -1.046661,6.79113 -2.489494,13.845021c-1.255699,6.139069 -1.482361,7.67577 -1.492516,10.119219c-0.014023,3.368061 0.397606,4.583319 1.552414,4.583319c1.179642,0 2.195526,-0.851898 4.060074,-3.404749c4.769707,-6.530439 5.567772,-7.582399 5.672737,-7.477419c0.06208,0.06208 -0.66581,1.580709 -1.617538,3.374739c-2.357613,4.44416 -2.291542,4.96929 0.553352,4.397951c0.808609,-0.16239 1.517212,-0.24826 1.574661,-0.190821c0.057434,0.057451 -0.227386,0.424631 -0.632942,0.81596c-0.763153,0.736351 -8.031021,6.215582 -11.774651,8.876852c-2.34536,1.667278 -2.514191,1.931789 -3.609528,5.655087c-2.335289,7.938152 -4.637833,18.487492 -4.627731,21.202465c0.012032,3.234688 1.144226,6.133446 3.533867,9.047798c3.03846,3.70562 12.10466,6.669281 17.813805,8.850571c4.643227,1.77404 2.464088,4.314758 2.464088,5.727371c0,1.976746 1.035782,2.081627 -4.79792,4.99826c-6.236794,3.118179 -14.068054,4.419937 -15.301033,6.888733c-0.479836,0.96077 -0.581604,1.5112 -0.488045,2.639442c0.23317,2.811668 2.472305,4.857491 9.136406,8.34761c3.8685,2.026001 4.829292,2.75 3.649467,2.75c-0.679779,0 -1.843857,1.109917 -1.841637,1.755951c0.000893,0.258629 0.177124,0.80674 0.391617,1.21801c0.516304,0.98996 0.59481,1.027496 -5.050217,-2.415222c-7.084717,-4.320732 -9.720428,-5.53492 -12.014931,-5.53492c-2.26902,0 -2.784439,1.813065 -1.548447,5.446991c1.87822,5.522209 3.954849,7.787529 13.973717,15.243454l6.862694,5.107132l-2.979607,0.15239c-2.402176,0.122849 -3.165939,0.262314 -3.941116,0.719681c-1.216789,0.717941 -1.472382,0.596024 -4.861969,-2.31897c-2.554924,-2.197189 -4.037971,-3.136429 -4.952423,-3.136429c-1.098015,0 -1.951035,-1.719498 -4.475235,-9.021004c-2.033195,-5.881226 -2.976936,-7.480965 -5.0755,-8.603546c-0.986885,-0.527931 -1.441956,-0.577118 -5.270615,-0.569817c-4.648956,0.00885 -5.723351,0.268852 -6.592705,1.595352c-0.559181,0.853218 -0.627762,3.862556 -0.254402,11.164497c0.124481,2.434418 0.124466,4.386162 0,4.385246c-0.123367,-0.000916 -0.419273,-0.344376 -0.657562,-0.763245c-0.238297,-0.418884 -0.743568,-0.96492 -1.122841,-1.213425c-0.667938,-0.43766 -0.71064,-0.432205 -1.361298,0.173965c-1.670502,1.556259 -4.107971,8.020264 -5.087608,13.492004c-0.805023,4.496475 -1.25671,5.12706 -2.929501,4.08992z"/>
  <path fill="#5b9974" stroke="#000000" stroke-linejoin="round" stroke-miterlimit="4" id="path2448" d="m87.584999,102.372009c-0.875359,-0.181587 -2.000092,-0.740341 -4.43589,-2.20369c-2.811302,-1.68895 -3.905319,-2.469246 -5.625229,-4.012169c-1.293198,-1.160118 -1.945068,-1.856522 -2.722473,-2.908409c-1.426178,-1.929741 -2.05307,-3.759033 -1.753479,-5.116684c0.138374,-0.627045 0.594803,-1.277267 1.128975,-1.608315c1.310127,-0.811951 3.362679,-0.813202 6.115585,-0.003754c1.198555,0.352417 2.650391,0.922943 3.275352,1.287109c1.313683,0.76548 2.761063,2.182648 3.933861,3.85173c1.676117,2.385384 2.670052,4.983002 2.673515,6.987244c0.001335,0.764694 -0.0532,1.057686 -0.342598,1.840935c-0.371529,1.005539 -0.810951,1.64267 -1.266365,1.836143c-0.237801,0.101021 -0.636902,0.1213 -0.981255,0.049858z"/>
  <path fill="#afa3cf" stroke="#000000" id="path2469" d="m335.578033,76.178001c-1.53952,-1.216934 -4.383606,-4.621399 -4.877869,-5.83905c-0.191986,-0.472923 -0.429352,-1.68486 -0.527557,-2.693192c-0.222473,-2.284698 -0.656097,-3.012238 -1.794495,-3.010918c-1.313446,0.001518 -2.36142,0.822815 -3.892395,3.05043c-1.44162,2.097649 -2.45282,2.870438 -3.373596,2.578201c-1.005737,-0.319206 -0.545593,-1.116066 1.772064,-3.068802c3.372559,-2.841553 4.599518,-5.115231 4.632599,-8.584602c0.023254,-2.44236 -0.885498,-4.156811 -3.668488,-6.921078c-3.527374,-3.503632 -9.055725,-6.917103 -13.862885,-8.55962c-1.550842,-0.529903 -2.339569,-0.626423 -5.118805,-0.626423c-5.302521,0 -5.790405,0.738041 -3.116272,4.714283c2.176331,3.236107 2.47818,3.869057 3.39386,7.117058c0.84668,3.003349 0.846741,4.01387 0.000183,4.01387c-0.779907,0 -1.024933,-0.760429 -0.976746,-3.03117c0.035522,-1.674461 -0.064026,-2.278568 -0.514648,-3.123581c-0.58252,-1.09227 -4.265137,-5.4659 -4.448181,-5.28286c-0.057709,0.057701 0.038818,2.746971 0.214478,5.976151c0.32193,5.918209 0.193848,8.048161 -0.497742,8.27713c-0.563232,0.186481 -0.834229,-1.126358 -1.000092,-4.844929c-0.2453,-5.500141 -0.82019,-7.300461 -3.101318,-9.71196c-1.350861,-1.42804 -2.203735,-1.8778 -3.560883,-1.8778c-1.396027,0 -4.79483,-0.492771 -4.375061,2.379601c0.465912,3.187988 0.692352,8.219177 -0.899078,8.679626c-0.981812,0.284073 -2.252991,-1.903027 -3.985443,-3.024677c-1.351135,-0.87476 -3.008575,-0.695351 -3.940277,-1.931351c-0.931732,-1.235989 4.693512,-4.25526 6.140747,-8.210129c4.341278,-11.863411 5.371948,-16.040411 5.167084,-20.940651c-0.0961,-2.29821 -0.23111,-2.993591 -0.821869,-4.232731c-1.313019,-2.75398 -3.496613,-4.09275 -5.925262,-3.63275c-1.355164,0.25667 -2.098907,-0.02504 -2.098907,-0.794991c0,-0.76176 -0.721802,-2.36729 -1.387512,-3.086249c-0.31723,-0.34261 -1.460693,-1.216411 -2.541046,-1.94177c-1.080353,-0.72535 -2.013855,-1.3605 -2.074463,-1.41143c-0.390503,-0.32824 3.164276,-2.97148 3.996185,-2.97148c0.346222,0 0.435425,0.26074 0.435425,1.27265c0,1.11399 0.131958,1.42257 1.058594,2.47528c2.219391,2.52138 6.776337,4.93676 9.422577,4.99439c1.673889,0.03645 2.288483,-0.34085 3.945923,-2.42253c1.72168,-2.16234 2.685394,-4.55167 2.735138,-6.78127c0.023346,-1.04608 0.125244,-1.98477 0.226471,-2.08597c0.413513,-0.41353 1.107361,0.46055 1.622864,2.04438c0.668274,2.05317 0.963959,2.22913 4.133698,2.46001c4.833099,0.35204 5.352295,1.26802 0.975433,1.72084c-3.083771,0.31905 -3.589081,0.44133 -4.89267,1.18394c-3.6875,2.10069 -5.879211,7.75193 -5.866913,15.127439c0.00531,3.17568 0.089996,3.28462 1.858765,2.390381c2.435059,-1.231081 9.66452,-5.339981 12.769379,-7.25754c7.362488,-4.54703 13.435944,-10.037781 14.852081,-13.427111c0.205078,-0.49079 0.372864,-1.70059 0.372864,-2.68844c0,-1.52835 0.08783,-1.87641 0.589264,-2.33491c0.722107,-0.66026 1.980774,-1.31132 2.68454,-1.38861c1.638306,-0.17992 1.826752,0.28788 0.792542,1.96708c-0.733948,1.19159 -0.81897,2.12709 -0.260406,2.86553c0.784851,1.03772 0.489502,1.60402 -1.860321,3.5667c-2.404419,2.00827 -3.107819,2.985671 -2.454529,3.41072c0.547302,0.3561 2.104034,0.05981 5.169403,-0.9839c2.513031,-0.85564 3.718933,-0.980391 3.325623,-0.34403c-0.327332,0.529691 -2.77063,1.57615 -7.327728,3.138471c-5.488007,1.881459 -6.73407,2.48181 -11.396484,5.49073c-1.944641,1.25499 -5.866028,3.679779 -8.714142,5.38843c-7.497192,4.49766 -8.62616,5.648119 -11.587341,11.807749c-1.461548,3.040199 -1.865295,4.399872 -1.576599,5.30949c0.414398,1.305641 5.452057,1.441711 7.539063,0.203632c0.612061,-0.363102 2.58609,-2.116623 4.386658,-3.896713c3.711304,-3.669029 5.562134,-5.146908 8.380951,-6.692198c2.235046,-1.22525 3.463135,-2.38352 4.434784,-4.182631c1.001892,-1.855061 1.458069,-1.672159 1.458069,0.584641c0,1.824139 0.003754,1.833759 0.751862,1.919249c1.34787,0.154032 1.96936,-0.196119 4.346222,-2.448679c1.288727,-1.22131 2.517151,-2.22057 2.729858,-2.22057c0.584167,0 0.758911,0.929079 0.330109,1.75477c-0.71048,1.368118 -3.133484,2.75046 -6.760132,3.85664c-3.180603,0.97015 -3.624115,1.370539 -3.624115,3.271749c0,1.79295 -0.267883,2.107208 -2.357117,2.764881c-2.35376,0.740917 -4.95343,2.01041 -5.106842,2.49379c-0.462067,1.455898 1.323364,2.270069 6.072571,2.769138c4.593567,0.482719 4.8862,0.561131 14.617554,3.916172c11.172241,3.851837 14.159058,5.307377 11.442078,5.576019c-1.075226,0.106308 -3.473969,-0.5919 -8.168274,-2.377552c-6.2995,-2.39624 -8.380951,-2.842239 -8.380951,-1.795807c0,0.74234 0.675964,1.167107 1.572083,0.987888c0.733765,-0.146751 0.785065,-0.105209 0.785065,0.635159c0,0.976521 0.468689,1.900902 2.260712,4.45892c2.34375,3.345592 3.112274,5.297901 4.134247,10.502453c1.380463,7.030037 2.075195,8.947899 3.808899,10.514168c0.950867,0.859077 1.812134,1.221123 5.052063,2.123741c0.828278,0.230751 1.505951,0.521141 1.505951,0.645302c0,0.3592 -2.275452,1.331047 -3.116486,1.331047c-0.494507,0 -1.224548,-0.363228 -2.064636,-1.027267z"/>
  <path fill="#afa3cf" stroke="#000000" id="path2471" d="m258.424225,83.361816c-1.348938,-1.292709 2.829285,-6.406036 3.27243,-6.887543c0.443115,-0.481522 1.475494,2.420906 1.930206,3.300209c0.454712,0.879311 2.433624,2.065094 1.906769,2.345345c-0.526855,0.280266 -0.959351,7.135811 -3.756256,4.455429l-3.353149,-3.21344z"/>
  <path fill="#afa3cf" stroke="#000000" id="path2473" d="m190.292084,105.946373c-0.188019,-2.21328 -1.9646,-4.39817 1.685822,-3.515625c3.650406,0.882561 3.971359,0.663078 3.017609,3.547714c-0.420731,1.272469 -1.124207,1.87262 -2.561157,1.737625c-1.436935,-0.134995 -1.954254,0.443565 -2.142273,-1.769714z"/>
  <path fill="#afa3cf" stroke="#000000" id="path2475" d="m151.268356,96.0401c0.120178,-1.290527 0.399277,-1.263 3.27359,-0.867043c2.874313,0.39595 3.042099,0.796501 1.68129,3.456894c-1.360809,2.6604 -0.740555,2.532227 -5.048035,0.949577c-4.30748,-1.582642 -0.027054,-2.248901 0.093155,-3.539429z"/>
  <path fill="#afa3cf" stroke="#000000" id="path2477" d="m229.635422,104.177498c-0.639618,-0.108826 -0.745972,-2.30172 -1.020126,-2.548187c-0.274139,-0.246483 -1.356079,-1.791557 -1.027756,-2.284523c0.328323,-0.49295 1.451157,-1.210411 1.654694,-1.36409c0.203552,-0.153679 2.022675,-1.115959 2.331802,-1.20739c0.309128,-0.091431 2.56868,-0.837387 2.59906,-0.68676c0.03038,0.150642 -0.225937,2.605484 -0.192413,3.415741c0.033524,0.810265 0.372147,2.483482 0.481812,2.825958c0.10968,0.342484 -0.754837,1.053642 -1.126831,1.237236c-0.371979,0.183578 -0.925858,0.585091 -1.795029,0.658134c-0.869156,0.073059 -1.26561,0.062706 -1.905212,-0.04612z"/>
  <path fill="#f9d566" stroke="#000000" id="path2481" d="m137.343552,100.031189c-7.964935,-1.232811 -17.195274,-5.10701 -19.102501,-8.017807c-0.551308,-0.841415 -0.547203,-1.178154 0.051926,-4.262749c0,0 0.285484,-2.242554 0.929962,-2.883461c0.322189,-0.320404 1.444069,-0.456894 1.444069,-0.456894c3.438316,0.017601 10.360321,0.695984 13.273209,1.300812c8.64357,1.794746 18.0784,6.13517 18.066238,8.311211c-0.006058,1.083672 -2.157547,4.433167 -3.429199,5.338646c-1.072418,0.763641 -1.69603,0.87767 -5.134567,0.938843c-2.152649,0.0383 -4.897247,-0.082573 -6.099136,-0.2686z"/>
  <path fill="#f9d566" stroke="#000000" id="path2483" d="m174.527359,109.332077c-1.856964,-0.16597 -4.584106,-0.553596 -6.060272,-0.861397c-3.666626,-0.764511 -9.342499,-3.315247 -11.206757,-5.036324c-1.324936,-1.22319 -1.524673,-1.615166 -1.524673,-2.992348c0,-1.305542 0.223206,-1.807976 1.266739,-2.851517c0.89328,-0.89328 1.63472,-1.281952 2.514862,-1.318329c6.860184,-0.283531 22.623627,2.037697 26.396606,3.887016c2.102722,1.030647 3.681503,3.316391 3.96846,5.745514c0.28894,2.446068 -0.326111,2.933578 -4.335327,3.436287c-3.508072,0.43988 -6.021332,0.437851 -11.019638,-0.008904z"/>
  <path fill="#f9d566" stroke="#000000" id="path2485" d="m205.660248,112.479431c-4.572876,-0.667671 -6.339859,-1.341293 -8.848572,-3.373299c-1.295563,-1.049385 -1.58342,-1.510681 -1.58342,-2.537354c0,-2.978226 1.349289,-4.20298 5.732773,-5.203621c4.311325,-0.984161 14.633759,-2.433769 19.043228,-2.674301c6.443405,-0.351463 8.139618,0.428909 9.264038,4.26207c0.955338,3.256783 0.234512,4.205826 -4.853271,6.38974c-6.058289,2.60051 -13.687866,3.876564 -18.754776,3.136765z"/>
  <path fill="#f9d566" stroke="#000000" id="path2487" d="m233.929123,99.063141c0,0 -0.102707,-2.854149 0.791718,-4.432602c0.894424,-1.578445 6.613144,-3.961617 6.613144,-3.961617c9.982559,-5.980064 12.988907,-7.385185 15.801086,-7.385185c1.757935,0 3.012695,0.762177 4.069275,2.471786c0.918274,1.485786 0.759033,2.678246 -0.595428,4.458405c-1.082947,1.423355 -8.315933,6.926208 -12.119629,9.220634c-3.591034,2.16613 -8.210159,3.503555 -10.144257,3.828339c-1.934113,0.324776 -2.953506,0.835861 -3.624191,0.139709c-0.670685,-0.696152 -0.791718,-4.33947 -0.791718,-4.33947z"/>
  <path fill="#f9d566" stroke="#000000" id="path2489" d="m265.042938,81.298431c-1.334351,-1.122803 -2.967285,-4.02478 -3.312347,-5.886574c-0.176666,-0.953331 -0.060242,-1.722221 0.39502,-2.607994c2.083405,-4.053864 10.942322,-16.963043 13.709778,-19.977844c1.717194,-1.87067 2.578247,-1.98 5.270599,-0.66922c2.973602,1.447731 4.657135,3.286522 4.657135,5.086689c0,1.674152 -2.762268,6.57111 -7.164032,12.700298c-8.127838,11.317703 -10.870239,13.6147 -13.556152,11.354645z"/>
  <path fill="#e68b60" stroke="#c8743b" d="m251.054199,91.826157a4.039261,1.603091 0 1 1 -8.078506,3.431a4.039261,1.603091 0 1 1 8.078506,-3.431z" id="path2491"/>
  <path fill="#e68b60" stroke="#c8743b" d="m275.359283,64.447617a2.264313,0.337679 0 1 1 -4.528625,7.518364a2.264313,0.337679 0 1 1 4.528625,-7.518364z" id="path2513"/>
  <path fill="#e68b60" stroke="#c8743b" d="m216.574219,104.592377a4.208403,1.779141 0 1 1 -8.416809,2.488304a4.208403,1.779141 0 1 1 8.416809,-2.488304z" id="path2535"/>
  <path fill="#e68b60" stroke="#c8743b" d="m176.143799,103.563995a4.388302,2.107909 0 1 1 -8.776596,0.074165a4.388302,2.107909 0 1 1 8.776596,-0.074165z" id="path2557"/>
  <path fill="#e68b60" stroke="#c8743b" d="m138.42688,94.412872a4.301108,2.248018 0 1 1 -8.602203,-1.742455a4.301108,2.248018 0 1 1 8.602203,1.742455z" id="path2579"/>
 </g>
</svg>